<?xml version="1.0" encoding="UTF-8"?>
<svg id="Capa_1" xmlns="http://www.w3.org/2000/svg" version="1.1" viewBox="0 0 48 48">
  <!-- Generator: Adobe Illustrator 30.3.0, SVG Export Plug-In . SVG Version: 2.1.3 Build 182)  -->
  <defs>
    <style>
      .st0 {
        fill: #c8ff01;
      }

      .st1 {
        fill: #999;
      }
    </style>
  </defs>
  <circle class="st1" cx="24" cy="24" r="22.8"/>
  <g>
    <path class="st0" d="M4.5,29.2v-2.9c.1-.5.4-1,1-1.2l1.3-.7.6-1.4-.5-1.5c-.2-.6,0-1.3.4-1.7l1.5-1.5c.4-.4,1-.6,1.7-.5l1.6.5,1.3-.6.7-1.3c.3-.6.8-1,1.5-1h2.2c.6,0,1.2.3,1.5.8l.8,1.5,1.3.6,1.5-.5c.6-.2,1.3,0,1.7.4l1.5,1.5c.5.5.6,1.2.4,1.8l-.5,1.4.6,1.4,1.3.6c.6.3,1,.9,1,1.6v2.2c0,.7-.4,1.2-1,1.5l-1.3.7-.6,1.4.5,1.5c.2.6,0,1.3-.4,1.7l-1.5,1.5c-.4.4-1,.6-1.6.5l-1.6-.5-1.4.6-.7,1.3c-.3.6-.8,1-1.5,1h-2.3c-.7,0-1.3-.4-1.6-1l-.7-1.3-1.4-.6-1.5.5c-.6.2-1.3,0-1.7-.4l-1.6-1.6c-.5-.5-.6-1.2-.4-1.8l.4-1.4c-.2-.5-.4-1-.6-1.4-1-.6-2-.7-2.3-1.9ZM15.6,38.9h2.2c.2,0,.5-.1.5-.3l.7-1.3c.3-.5.8-.6,1.3-.8s1-.5,1.5-.3l1.4.5c.1,0,.4,0,.5-.1l1.6-1.6c.1-.1.2-.4.1-.5l-.5-1.5c-.2-.5.1-1,.3-1.5s.3-1,.8-1.2l1.4-.7c.1,0,.3-.3.3-.5v-2.3c0-.2-.2-.4-.3-.5l-1.4-.7c-.5-.2-.6-.8-.8-1.2s-.5-1-.3-1.5l.5-1.4c0-.2,0-.5-.1-.6l-1.5-1.5c-.2-.2-.4-.2-.7-.1l-1.4.5c-.5.2-1-.1-1.5-.3s-1-.4-1.3-.9l-.7-1.4c0-.2-.3-.3-.5-.3h-2.1c-.2,0-.4.1-.5.3l-.7,1.3c-.2.3-.5.6-.8.7l-.9.4c-.4.2-.9.2-1.3,0l-1.3-.4c-.2,0-.4,0-.6.2l-1.5,1.5c-.1.1-.2.4-.2.6l.4,1.3c.2.5.1.9,0,1.4l-.4.9c-.2.4-.4.7-.8.9l-1.2.6c-.1,0-.3.3-.3.5v2.2c0,.2.1.4.3.5l1.4.7c.5.3.6.8.8,1.3s.5,1,.3,1.5l-.5,1.4c0,.2,0,.4.1.6l1.6,1.6c.1.1.4.2.6.1l1.5-.5c.5-.2,1,.2,1.5.3s1,.4,1.3,1l.6,1.2c0,.1.3.3.5.3Z"/>
    <path class="st0" d="M35.2,26h-1.9c-.4,0-.8-.2-1-.6l-.5-1-.9-.4-1.2.4c-.3.1-.8,0-1-.2l-1.3-1.3c-.3-.3-.5-.7-.3-1.1l.4-1.2-.3-.9-1.1-.5c-.4-.2-.6-.6-.6-1v-1.9c0-.3.2-.7.5-.9l1.2-.6.3-.9-.4-1.2c-.1-.4,0-.8.3-1.1l1.4-1.4c.3-.3.7-.4,1.1-.2l1.1.4.9-.4.5-1c.2-.4.6-.6,1-.6h1.8c.4,0,.8.2,1,.6l.5,1.1.9.3,1.1-.4c.4-.1.9,0,1.1.3l1.3,1.3c.3.3.3.7.2,1.1l-.4,1.2.3.8,1,.5c.4.2.6.6.6,1v1.7c0,.4-.2.8-.5,1l-1.1.6-.3.8.4,1.1c.1.4,0,.9-.3,1.2l-1.3,1.3c-.3.3-.8.4-1.2.3l-1-.3-.8.4-.6,1.1c-.2.3-.5.5-.9.6ZM35.2,24.8l.6-1.2c.2-.3.6-.4.9-.6s.7-.3,1-.3c.5,0,.9.2,1.4.4l1.3-1.3-.4-1.3c-.1-.3.2-.7.3-1.1s.3-.7.6-.9l1.1-.6v-1.8s-1-.5-1-.5c-.4-.2-.6-.5-.7-1s-.4-.7-.3-1c.1-.5.3-.9.4-1.4l-1.3-1.3-1.2.4c-.4.1-.8,0-1.1-.2s-.8-.3-1-.6l-.6-1.1h-1.8c-.2.5-.4.9-.7,1.3s-1.5.8-1.9.7l-1.2-.4-1.3,1.3.4,1.2c.1.4-.5,1.8-.7,1.9l-1.3.7v1.8s1.2.6,1.2.6c.3.2.4.6.5.9s.3.7.2,1.1l-.4,1.2,1.3,1.3,1.3-.4c.4-.1,1.8.5,1.9.8l.6,1.2h1.8Z"/>
    <path class="st0" d="M24.5,42.3l-1.3-2.2c-.1-.2,0-.6.3-.7,2.5-1.5,4.5-3.7,5.6-6.4l-.5-.2c-.2,0-.4-.3-.4-.4s0-.4.2-.6l3.1-2.7c.1-.1.4-.2.5-.2s.4.2.4.3l1.3,4c0,.2,0,.5-.1.6s-.4.2-.5.2l-.7-.2c-1.4,3.6-4,6.5-7.3,8.4-.2.1-.6.1-.7-.1ZM25.1,41.1c3-1.9,5.3-4.7,6.5-8,.1-.3.4-.4.8-.3l-.7-2.2-1.7,1.5c.4.2.5.5.4.9-1.1,3-3.2,5.5-5.9,7.2l.6,1Z"/>
    <path class="st0" d="M22,11.7l.6-1.2c.1-.3.5-.4.7-.2s.4.5.2.8c-.3.5-.5,1-.7,1.5s-.5.5-.9.4l.5,2.2,1.9-1.3c-.3-.2-.5-.4-.4-.7.9-2.2,2.3-4,4.3-5.2l-.6-1c-.9.6-1.7,1.3-2.4,2s-.6.3-.8,0-.3-.5,0-.8c.9-1,2-1.9,3.2-2.5s.6,0,.7.2l1.2,2.1c.1.2,0,.6-.2.7-1.8,1-3.1,2.5-4,4.4l.6.3c.1,0,.3.3.3.4s0,.4-.3.5l-3.5,2.4c-.3.2-.7,0-.8-.4l-.9-4.2c0-.2,0-.4.2-.5s.4-.2.5-.1l.6.2Z"/>
    <path class="st0" d="M16.4,31.8c2,.2,3.9-1.2,4.3-3.1s-.6-4-2.4-4.8-4.1,0-5.1,1.7-.6,4,1,5.3.3.5.2.8-.5.4-.8.2c-2.1-1.5-2.7-4.4-1.5-6.7s4-3.3,6.5-2.4,3.8,3.5,3.2,6-2.9,4.3-5.5,4.1-.5-.3-.5-.6.3-.6.6-.6Z"/>
    <path class="st0" d="M10.3,21.8c-.3.3-.6.2-.8,0s-.2-.6,0-.8l.5-.5c.2-.2.6-.2.8,0s.3.6,0,.8l-.5.5Z"/>
    <path class="st0" d="M7.9,28.1c0,.3-.3.5-.6.5s-.6-.2-.6-.6v-.7c0-.3.3-.5.5-.5s.6.1.6.5v.8Z"/>
    <path class="st0" d="M17,19h-.7c-.3,0-.6-.3-.6-.6s.2-.6.5-.6h.8c.3,0,.5.3.5.6s-.2.6-.6.6Z"/>
    <path class="st0" d="M10.7,34.2c.3.2.2.6,0,.8s-.6.3-.8,0l-.6-.6c-.2-.2-.1-.6,0-.7s.6-.3.8,0l.5.5Z"/>
    <path class="st0" d="M17.1,37.6h-.8c-.4,0-.6-.3-.5-.6s.2-.5.6-.5h.7c.3,0,.5.3.6.5s-.2.6-.5.6Z"/>
    <path class="st0" d="M26.6,28.1c0,.3-.2.5-.5.6s-.6-.1-.6-.4,0-.7,0-1,.4-.4.6-.4.5.3.5.6v.7Z"/>
    <path class="st0" d="M24,21c.2.2.2.6,0,.8s-.5.2-.8,0l-.6-.6c-.2-.2,0-.6,0-.7s.6-.2.8,0l.5.5Z"/>
    <path class="st0" d="M23.5,35c-.3.3-.6.3-.8,0s-.3-.6,0-.8l.5-.5c.2-.2.6-.2.8,0s.2.6,0,.8l-.4.4Z"/>
    <path class="st0" d="M35.9,19.7c1.2-.8,1.6-2.3,1.1-3.6s-1.9-2-3.3-1.7-2.3,1.5-2.3,2.9,1,2.6,2.4,2.9.5.4.4.6-.3.6-.6.5c-1.9-.3-3.3-2-3.3-3.9s1.3-3.7,3.2-4.1,3.9.6,4.6,2.4.1,3.9-1.6,5-.6,0-.7-.2-.1-.6.2-.8Z"/>
  </g>
</svg>